<svg width="18" height="10" viewBox="0 0 18 10" fill="none" xmlns="http://www.w3.org/2000/svg">
<path d="M0.396208 9.57668C0.649976 9.82048 0.994114 9.95745 1.35294 9.95745C1.71177 9.95745 2.05591 9.82048 2.30968 9.57668L9.00817 3.13915L15.7067 9.57668C15.9619 9.81357 16.3037 9.94466 16.6585 9.94169C17.0133 9.93873 17.3527 9.80196 17.6036 9.56083C17.8545 9.31971 17.9969 8.99352 17.9999 8.65253C18.003 8.31155 17.8666 7.98303 17.6201 7.73776L9.9649 0.380771C9.71113 0.136964 9.367 0 9.00817 0C8.64934 0 8.3052 0.136964 8.05144 0.380771L0.396208 7.73776C0.142516 7.98164 0 8.31237 0 8.65722C0 9.00206 0.142516 9.33279 0.396208 9.57668Z" fill="#14213D"/>
</svg>
