<svg width="24" height="27" viewBox="0 0 24 27" fill="none" xmlns="http://www.w3.org/2000/svg">
<path d="M2.00805 10.764C2.05815 10.1398 2.34151 9.55741 2.80172 9.13275C3.26193 8.70809 3.8652 8.47234 4.4914 8.47247H19.5086C20.1348 8.47234 20.7381 8.70809 21.1983 9.13275C21.6585 9.55741 21.9419 10.1398 21.9919 10.764L22.992 23.2182C23.0195 23.5609 22.9758 23.9056 22.8635 24.2306C22.7513 24.5556 22.573 24.8538 22.3398 25.1065C22.1066 25.3592 21.8237 25.5609 21.5088 25.6989C21.1938 25.8369 20.8537 25.9082 20.5099 25.9083H3.49009C3.14626 25.9082 2.80617 25.8369 2.49124 25.6989C2.17631 25.5609 1.89336 25.3592 1.6602 25.1065C1.42704 24.8538 1.24872 24.5556 1.13647 24.2306C1.02423 23.9056 0.980477 23.5609 1.00798 23.2182L2.00805 10.764V10.764Z" stroke="#283C65" stroke-width="2" stroke-linecap="round" stroke-linejoin="round"/>
<path d="M16.9817 12.2087V5.98165C16.9817 4.66044 16.4569 3.39333 15.5226 2.45909C14.5884 1.52485 13.3213 1 12.0001 1C10.6789 1 9.41177 1.52485 8.47752 2.45909C7.54328 3.39333 7.01843 4.66044 7.01843 5.98165V12.2087" stroke="#283C65" stroke-width="2" stroke-linecap="round" stroke-linejoin="round"/>
</svg>
