<svg width="21" height="20" viewBox="0 0 21 20" fill="none" xmlns="http://www.w3.org/2000/svg">
<path d="M5.5 12.1955C3.92 12.1955 2.597 13.2266 2.163 14.6273H0V16.5727H2.163C2.597 17.9735 3.92 19.0046 5.5 19.0046C7.08 19.0046 8.403 17.9735 8.837 16.5727H20V14.6273H8.837C8.403 13.2266 7.08 12.1955 5.5 12.1955ZM5.5 17.0591C4.673 17.0591 4 16.4045 4 15.6C4 14.7956 4.673 14.1409 5.5 14.1409C6.327 14.1409 7 14.7956 7 15.6C7 16.4045 6.327 17.0591 5.5 17.0591ZM14.5 6.3591C12.92 6.3591 11.597 7.39019 11.163 8.79092H0V10.7364H11.163C11.597 12.1371 12.92 13.1682 14.5 13.1682C16.08 13.1682 17.403 12.1371 17.837 10.7364H20V8.79092H17.837C17.403 7.39019 16.08 6.3591 14.5 6.3591ZM14.5 11.2227C13.673 11.2227 13 10.5681 13 9.76365C13 8.9592 13.673 8.30456 14.5 8.30456C15.327 8.30456 16 8.9592 16 9.76365C16 10.5681 15.327 11.2227 14.5 11.2227Z" fill="#14213D"/>
<path d="M10.837 2.95455C10.403 1.55383 9.08 0.522736 7.5 0.522736C5.92 0.522736 4.597 1.55383 4.163 2.95455H0V4.90001H4.163C4.597 6.30074 5.92 7.33183 7.5 7.33183C9.08 7.33183 10.403 6.30074 10.837 4.90001H20.125V2.95455H10.837ZM7.5 5.38637C6.673 5.38637 6 4.73173 6 3.92728C6 3.12284 6.673 2.46819 7.5 2.46819C8.327 2.46819 9 3.12284 9 3.92728C9 4.73173 8.327 5.38637 7.5 5.38637Z" fill="#14213D"/>
</svg>
