<svg width="16" height="12" viewBox="0 0 16 12" fill="none" xmlns="http://www.w3.org/2000/svg">
<path d="M14.4 0.399994H1.6C0.7192 0.399994 0 1.11999 0 1.99999V9.99999C0 10.88 0.7192 11.6 1.6 11.6H14.4C15.28 11.6 16 10.88 16 9.99999V1.99999C16 1.11999 15.28 0.399994 14.4 0.399994ZM14.4 9.99999H1.6V5.19999H14.4V9.99999ZM14.4 2.79999H1.6V1.99999H14.4V2.79999ZM3.2 6.87999V7.35999H3.68V6.87999H3.2ZM6.08 7.83919V8.31999H7.04V7.83919H7.52V7.35919H8V6.87919H7.04V7.35919H6.5592V7.83919H6.08ZM8 8.31999V7.83919H7.5192V8.31999H8ZM5.6 8.31999V7.83919H4.64V8.31999H5.6ZM6.08 7.35919H6.56V6.87919H5.6V7.83839H6.08V7.35919ZM4.1592 7.83919H4.64V7.35919H5.12V6.87919H4.16V7.35919H3.68V7.83919H3.2V8.31999H4.1592V7.83919Z" fill="current"/>
</svg>
