<svg width="15" height="15" viewBox="0 0 15 15" fill="none" xmlns="http://www.w3.org/2000/svg">
<path d="M6.60326 1.81698C6.97008 1.07374 8.02992 1.07374 8.39674 1.81699L9.47153 3.99475C9.61719 4.28989 9.89875 4.49446 10.2245 4.54179L12.6278 4.89101C13.448 5.01019 13.7755 6.01816 13.182 6.5967L11.4429 8.29185C11.2072 8.52158 11.0997 8.85258 11.1553 9.17698L11.5659 11.5706C11.706 12.3875 10.8485 13.0104 10.1149 12.6247L7.96534 11.4946C7.67402 11.3415 7.32598 11.3415 7.03466 11.4946L4.88508 12.6247C4.15146 13.0104 3.29402 12.3875 3.43413 11.5706L3.84467 9.17698C3.9003 8.85258 3.79276 8.52158 3.55707 8.29185L1.81803 6.5967C1.22451 6.01816 1.55202 5.01019 2.37224 4.89101L4.77554 4.54179C5.10125 4.49446 5.38281 4.28989 5.52848 3.99474L6.60326 1.81698Z" fill="#FDB53F"/>
</svg>
