<svg width="22" height="18" viewBox="0 0 22 18" fill="none" xmlns="http://www.w3.org/2000/svg">
<path d="M9 14H15M15 14V3C15 2.46957 14.7893 1.96086 14.4142 1.58579C14.0391 1.21071 13.5304 1 13 1H3C2.46957 1 1.96086 1.21071 1.58579 1.58579C1.21071 1.96086 1 2.46957 1 3V13C1 13.2652 1.10536 13.5196 1.29289 13.7071C1.48043 13.8946 1.73478 14 2 14H3M15 14V5H17C18.0609 5 19.0783 5.42143 19.8284 6.17157C20.5786 6.92172 21 7.93913 21 9V13C21 13.2652 20.8946 13.5196 20.7071 13.7071C20.5196 13.8946 20.2652 14 20 14M15 14H20M20 14C20 14.7956 19.6839 15.5587 19.1213 16.1213C18.5587 16.6839 17.7956 17 17 17C16.2044 17 15.4413 16.6839 14.8787 16.1213C14.3161 15.5587 14 14.7956 14 14M20 14H18.5H17M21 11H19" stroke="#FDB53F" stroke-width="2" stroke-linecap="round" stroke-linejoin="round"/>
<path d="M6 17C7.65685 17 9 15.6569 9 14C9 12.3431 7.65685 11 6 11C4.34315 11 3 12.3431 3 14C3 15.6569 4.34315 17 6 17Z" stroke="#FDB53F" stroke-width="2" stroke-linecap="round" stroke-linejoin="round"/>
</svg>
